<mxfile host="app.diagrams.net" modified="2023-11-18T04:29:01.930Z" agent="Mozilla/5.0 (Macintosh; Intel Mac OS X 10_15_7) AppleWebKit/605.1.15 (KHTML, like Gecko) Version/17.1 Safari/605.1.15" version="22.1.3" etag="CGArdx3N-omiu3pJkPxN" type="github">
  <diagram name="Page-1" id="CH8b_VlDvK3LNRvnMOPr">
    <mxGraphModel>
      <root>
        <mxCell id="0" />
        <mxCell id="1" parent="0" />
      </root>
    </mxGraphModel>
  </diagram>
</mxfile>
